<svg xmlns="http://www.w3.org/2000/svg" xmlns:xlink="http://www.w3.org/1999/xlink" version="1.1" width="256" height="256" viewBox="0 0 256 256" xml:space="preserve">
<g style="stroke: none; stroke-width: 0; stroke-dasharray: none; stroke-linecap: butt; stroke-linejoin: miter; stroke-miterlimit: 10; fill: none; fill-rule: nonzero; opacity: 1;" transform="translate(1.4065934065934016 1.4065934065934016) scale(2.81 2.81)">
	<circle cx="45" cy="45" r="45" style="stroke: none; stroke-width: 1; stroke-dasharray: none; stroke-linecap: butt; stroke-linejoin: miter; stroke-miterlimit: 10; fill: rgb(32,196,203); fill-rule: nonzero; opacity: 1;" transform="  matrix(1 0 0 1 0 0) "/>
	<path d="M 34.365 56.531 l 22.464 -0.208 c 2.314 -0.021 3.985 -2.221 3.386 -4.456 l -2.74 -10.226 l -0.424 -1.582 l -2.74 -10.226 c -0.599 -2.235 -3.146 -3.304 -5.161 -2.166 L 29.592 38.719 l -10.529 5.95 l -4.195 2.371 c -1.405 0.794 -2.095 2.439 -1.678 3.998 l 0 0 l 0.811 3.026 l 0 0 c 0.418 1.559 1.838 2.638 3.452 2.623 l 4.819 -0.045 L 34.365 56.531 z" style="stroke: none; stroke-width: 1; stroke-dasharray: none; stroke-linecap: butt; stroke-linejoin: miter; stroke-miterlimit: 10; fill: rgb(27,167,173); fill-rule: nonzero; opacity: 1;" transform=" matrix(1 0 0 1 0 0) " stroke-linecap="round"/>
	<path d="M 17.418 57.187 c -1.826 0 -3.426 -1.226 -3.899 -2.994 l -0.811 -3.025 c -0.477 -1.78 0.31 -3.657 1.915 -4.563 l 34.282 -19.372 c 1.096 -0.621 2.392 -0.695 3.552 -0.208 c 1.16 0.487 2.013 1.464 2.339 2.679 l 5.904 22.035 c 0.325 1.217 0.075 2.488 -0.687 3.49 c -0.762 1.003 -1.921 1.584 -3.179 1.596 L 34.37 57.03 h 0 l -16.913 0.156 C 17.444 57.187 17.431 57.187 17.418 57.187 z M 50.89 27.707 c -0.516 0 -1.028 0.132 -1.493 0.396 L 15.114 47.475 c -1.208 0.682 -1.8 2.094 -1.441 3.433 l 0.811 3.026 c 0.356 1.33 1.56 2.253 2.934 2.253 c 0.01 0 0.02 0 0.03 0 l 39.376 -0.363 c 0.947 -0.009 1.819 -0.446 2.393 -1.2 s 0.761 -1.712 0.516 -2.627 l -5.904 -22.035 c -0.244 -0.915 -0.886 -1.649 -1.759 -2.016 C 51.688 27.786 51.288 27.707 50.89 27.707 z" style="stroke: none; stroke-width: 1; stroke-dasharray: none; stroke-linecap: butt; stroke-linejoin: miter; stroke-miterlimit: 10; fill: rgb(27,167,173); fill-rule: nonzero; opacity: 1;" transform=" matrix(1 0 0 1 0 0) " stroke-linecap="round"/>
	<path d="M 27.475 68.418 c -4.011 0 -7.273 -3.263 -7.273 -7.272 c 0 -4.011 3.263 -7.273 7.273 -7.273 c 4.01 0 7.273 3.263 7.273 7.273 C 34.748 65.155 31.485 68.418 27.475 68.418 z M 27.475 57.872 c -1.805 0 -3.273 1.469 -3.273 3.273 s 1.468 3.272 3.273 3.272 c 1.805 0 3.273 -1.468 3.273 -3.272 S 29.279 57.872 27.475 57.872 z" style="stroke: none; stroke-width: 1; stroke-dasharray: none; stroke-linecap: butt; stroke-linejoin: miter; stroke-miterlimit: 10; fill: rgb(27,167,173); fill-rule: nonzero; opacity: 1;" transform=" matrix(1 0 0 1 0 0) " stroke-linecap="round"/>
	<path d="M 62.583 41.78 c -0.888 0 -1.697 -0.594 -1.934 -1.493 c -0.28 -1.068 0.358 -2.162 1.427 -2.442 l 7.849 -2.061 c 1.066 -0.28 2.161 0.358 2.442 1.427 c 0.28 1.068 -0.358 2.162 -1.427 2.442 l -7.849 2.061 C 62.922 41.758 62.751 41.78 62.583 41.78 z" style="stroke: none; stroke-width: 1; stroke-dasharray: none; stroke-linecap: butt; stroke-linejoin: miter; stroke-miterlimit: 10; fill: rgb(27,167,173); fill-rule: nonzero; opacity: 1;" transform=" matrix(1 0 0 1 0 0) " stroke-linecap="round"/>
	<path d="M 60.981 35.443 c -0.732 0 -1.438 -0.403 -1.789 -1.102 c -0.496 -0.987 -0.099 -2.189 0.889 -2.686 l 4.711 -2.37 c 0.988 -0.497 2.188 -0.098 2.686 0.888 c 0.496 0.987 0.099 2.189 -0.889 2.686 l -4.711 2.37 C 61.59 35.374 61.283 35.443 60.981 35.443 z" style="stroke: none; stroke-width: 1; stroke-dasharray: none; stroke-linecap: butt; stroke-linejoin: miter; stroke-miterlimit: 10; fill: rgb(27,167,173); fill-rule: nonzero; opacity: 1;" transform=" matrix(1 0 0 1 0 0) " stroke-linecap="round"/>
	<path d="M 64.297 48.087 c -1.061 0 -1.945 -0.834 -1.996 -1.905 c -0.052 -1.104 0.801 -2.041 1.903 -2.092 l 5.268 -0.249 c 1.092 -0.067 2.04 0.799 2.093 1.903 c 0.052 1.104 -0.801 2.04 -1.903 2.092 l -5.268 0.249 C 64.361 48.086 64.329 48.087 64.297 48.087 z" style="stroke: none; stroke-width: 1; stroke-dasharray: none; stroke-linecap: butt; stroke-linejoin: miter; stroke-miterlimit: 10; fill: rgb(27,167,173); fill-rule: nonzero; opacity: 1;" transform=" matrix(1 0 0 1 0 0) " stroke-linecap="round"/>
	<path d="M 37.002 53.894 l 22.464 -0.208 c 2.314 -0.021 3.985 -2.221 3.386 -4.456 l -2.74 -10.226 l -0.424 -1.582 l -2.74 -10.226 c -0.599 -2.235 -3.146 -3.304 -5.161 -2.166 L 32.229 36.082 L 21.7 42.032 l -4.195 2.371 c -1.405 0.794 -2.095 2.439 -1.678 3.998 l 0 0 l 0.811 3.026 v 0 c 0.418 1.559 1.838 2.638 3.452 2.623 l 4.819 -0.045 L 37.002 53.894 z" style="stroke: none; stroke-width: 1; stroke-dasharray: none; stroke-linecap: butt; stroke-linejoin: miter; stroke-miterlimit: 10; fill: rgb(255,255,255); fill-rule: nonzero; opacity: 1;" transform=" matrix(1 0 0 1 0 0) " stroke-linecap="round"/>
	<path d="M 20.058 54.551 c -1.828 0 -3.429 -1.227 -3.903 -2.994 l -0.811 -3.027 c -0.478 -1.779 0.31 -3.655 1.914 -4.562 l 34.283 -19.373 c 1.097 -0.62 2.389 -0.695 3.551 -0.208 c 1.16 0.487 2.014 1.463 2.34 2.68 l 5.904 22.034 c 0.325 1.217 0.075 2.488 -0.687 3.49 c -0.762 1.003 -1.921 1.584 -3.179 1.596 l -22.465 0.207 h 0 l -16.912 0.157 C 20.082 54.551 20.07 54.551 20.058 54.551 z M 53.526 25.07 c -0.516 0 -1.028 0.132 -1.493 0.396 L 17.75 44.838 c -1.207 0.682 -1.799 2.093 -1.44 3.432 l 0.811 3.027 c 0.359 1.34 1.574 2.295 2.965 2.253 l 39.375 -0.364 c 0.947 -0.009 1.819 -0.446 2.393 -1.2 s 0.761 -1.712 0.516 -2.627 l -5.904 -22.034 c -0.245 -0.915 -0.887 -1.65 -1.761 -2.017 C 54.324 25.149 53.924 25.07 53.526 25.07 z" style="stroke: none; stroke-width: 1; stroke-dasharray: none; stroke-linecap: butt; stroke-linejoin: miter; stroke-miterlimit: 10; fill: rgb(255,255,255); fill-rule: nonzero; opacity: 1;" transform=" matrix(1 0 0 1 0 0) " stroke-linecap="round"/>
	<path d="M 30.111 65.781 c -4.01 0 -7.273 -3.263 -7.273 -7.272 c 0 -4.011 3.263 -7.273 7.273 -7.273 c 4.011 0 7.273 3.263 7.273 7.273 C 37.384 62.519 34.122 65.781 30.111 65.781 z M 30.111 55.235 c -1.805 0 -3.273 1.469 -3.273 3.273 s 1.468 3.272 3.273 3.272 c 1.805 0 3.273 -1.468 3.273 -3.272 S 31.916 55.235 30.111 55.235 z" style="stroke: none; stroke-width: 1; stroke-dasharray: none; stroke-linecap: butt; stroke-linejoin: miter; stroke-miterlimit: 10; fill: rgb(255,255,255); fill-rule: nonzero; opacity: 1;" transform=" matrix(1 0 0 1 0 0) " stroke-linecap="round"/>
	<path d="M 65.22 39.144 c -0.888 0 -1.697 -0.594 -1.934 -1.493 c -0.28 -1.068 0.358 -2.162 1.427 -2.442 l 7.849 -2.061 c 1.066 -0.28 2.161 0.358 2.442 1.427 c 0.28 1.068 -0.358 2.162 -1.427 2.442 l -7.849 2.061 C 65.559 39.122 65.388 39.144 65.22 39.144 z" style="stroke: none; stroke-width: 1; stroke-dasharray: none; stroke-linecap: butt; stroke-linejoin: miter; stroke-miterlimit: 10; fill: rgb(255,255,255); fill-rule: nonzero; opacity: 1;" transform=" matrix(1 0 0 1 0 0) " stroke-linecap="round"/>
	<path d="M 63.618 32.806 c -0.732 0 -1.438 -0.403 -1.789 -1.102 c -0.496 -0.987 -0.099 -2.189 0.889 -2.686 l 4.711 -2.37 c 0.987 -0.498 2.189 -0.098 2.686 0.888 c 0.496 0.987 0.099 2.189 -0.889 2.686 l -4.711 2.37 C 64.227 32.737 63.92 32.806 63.618 32.806 z" style="stroke: none; stroke-width: 1; stroke-dasharray: none; stroke-linecap: butt; stroke-linejoin: miter; stroke-miterlimit: 10; fill: rgb(255,255,255); fill-rule: nonzero; opacity: 1;" transform=" matrix(1 0 0 1 0 0) " stroke-linecap="round"/>
	<path d="M 66.934 45.451 c -1.061 0 -1.945 -0.834 -1.996 -1.906 c -0.052 -1.103 0.8 -2.04 1.903 -2.092 l 5.268 -0.249 c 1.088 -0.079 2.04 0.799 2.093 1.903 c 0.052 1.103 -0.8 2.04 -1.903 2.092 l -5.268 0.249 C 66.998 45.45 66.966 45.451 66.934 45.451 z" style="stroke: none; stroke-width: 1; stroke-dasharray: none; stroke-linecap: butt; stroke-linejoin: miter; stroke-miterlimit: 10; fill: rgb(255,255,255); fill-rule: nonzero; opacity: 1;" transform=" matrix(1 0 0 1 0 0) " stroke-linecap="round"/>
</g>
</svg>