<svg xmlns="http://www.w3.org/2000/svg" xmlns:xlink="http://www.w3.org/1999/xlink" version="1.1" width="256" height="256" viewBox="0 0 256 256" xml:space="preserve">
<g style="stroke: none; stroke-width: 0; stroke-dasharray: none; stroke-linecap: butt; stroke-linejoin: miter; stroke-miterlimit: 10; fill: none; fill-rule: nonzero; opacity: 1;" transform="translate(1.4065934065934016 1.4065934065934016) scale(2.81 2.81)">
	<circle cx="45" cy="45" r="45" style="stroke: none; stroke-width: 1; stroke-dasharray: none; stroke-linecap: butt; stroke-linejoin: miter; stroke-miterlimit: 10; fill: rgb(32,196,203); fill-rule: nonzero; opacity: 1;" transform="  matrix(1 0 0 1 0 0) "/>
	<path d="M 60.016 17.667 c 10.423 6.018 8.055 29.097 0.654 41.916 s -21.85 18.332 -32.274 12.314 c -1.113 -0.586 -2.182 -1.284 -3.187 -2.061 c 7.225 -2.669 22.059 -12.502 24.174 -21.887 c -5.51 9.149 -22.427 17.152 -29.064 16.575 C 6.934 25.833 54.601 36.833 60.016 17.667 z" style="stroke: none; stroke-width: 1; stroke-dasharray: none; stroke-linecap: butt; stroke-linejoin: miter; stroke-miterlimit: 10; fill: rgb(27,167,173); fill-rule: nonzero; opacity: 1;" transform=" matrix(1 0 0 1 0 0) " stroke-linecap="round"/>
	<path d="M 65.016 15.667 c 10.423 6.018 8.055 29.097 0.654 41.916 s -21.85 18.332 -32.274 12.314 c -1.113 -0.586 -2.182 -1.284 -3.187 -2.061 c 7.225 -2.669 22.059 -12.502 24.174 -21.887 c -5.51 9.149 -22.427 17.152 -29.064 16.575 C 11.934 23.833 59.601 34.833 65.016 15.667 z" style="stroke: none; stroke-width: 1; stroke-dasharray: none; stroke-linecap: butt; stroke-linejoin: miter; stroke-miterlimit: 10; fill: rgb(255,255,255); fill-rule: nonzero; opacity: 1;" transform=" matrix(1 0 0 1 0 0) " stroke-linecap="round"/>
</g>
</svg>