<svg xmlns="http://www.w3.org/2000/svg" xmlns:xlink="http://www.w3.org/1999/xlink" version="1.1" width="256" height="256" viewBox="0 0 256 256" xml:space="preserve">
<g style="stroke: none; stroke-width: 0; stroke-dasharray: none; stroke-linecap: butt; stroke-linejoin: miter; stroke-miterlimit: 10; fill: none; fill-rule: nonzero; opacity: 1;" transform="translate(1.4065934065934016 1.4065934065934016) scale(2.81 2.81)">
	<circle cx="45" cy="45" r="45" style="stroke: none; stroke-width: 1; stroke-dasharray: none; stroke-linecap: butt; stroke-linejoin: miter; stroke-miterlimit: 10; fill: rgb(32,196,203); fill-rule: nonzero; opacity: 1;" transform="  matrix(1 0 0 1 0 0) "/>
	<path d="M 59.789 31.582 v -6.999 c 0 -2.657 -2.154 -4.811 -4.811 -4.811 H 28.58 c -2.564 0 -4.642 2.078 -4.642 4.642 v 7.168 c 0 7.192 5.336 13.182 12.242 14.249 v 4.61 c -6.905 1.067 -12.242 7.057 -12.242 14.249 v 7.168 c 0 2.564 2.078 4.642 4.642 4.642 h 26.398 c 2.657 0 4.811 -2.154 4.811 -4.811 V 64.69 c 0 -7.192 -5.336 -13.182 -12.242 -14.249 v -4.61 C 54.452 44.764 59.789 38.774 59.789 31.582 z" style="stroke: none; stroke-width: 1; stroke-dasharray: none; stroke-linecap: butt; stroke-linejoin: miter; stroke-miterlimit: 10; fill: rgb(27,167,173); fill-rule: nonzero; opacity: 1;" transform=" matrix(1 0 0 1 0 0) " stroke-linecap="round"/>
	<path d="M 63.061 28.31 v -6.999 c 0 -2.657 -2.154 -4.811 -4.811 -4.811 H 31.853 c -2.564 0 -4.642 2.078 -4.642 4.642 v 7.168 c 0 7.192 5.336 13.182 12.242 14.249 v 4.61 c -6.905 1.067 -12.242 7.057 -12.242 14.249 v 7.168 c 0 2.564 2.078 4.642 4.642 4.642 h 26.398 c 2.657 0 4.811 -2.154 4.811 -4.811 v -6.999 c 0 -7.192 -5.336 -13.182 -12.242 -14.249 v -4.61 C 57.725 41.491 63.061 35.502 63.061 28.31 z" style="stroke: none; stroke-width: 1; stroke-dasharray: none; stroke-linecap: butt; stroke-linejoin: miter; stroke-miterlimit: 10; fill: rgb(255,255,255); fill-rule: nonzero; opacity: 1;" transform=" matrix(1 0 0 1 0 0) " stroke-linecap="round"/>
</g>
</svg>